<?xml version="1.0" encoding="UTF-8"?>
<svg width="70px" height="73px" viewBox="0 0 70 73" version="1.1" xmlns="http://www.w3.org/2000/svg" xmlns:xlink="http://www.w3.org/1999/xlink">
    <!-- Generator: Sketch 55.2 (78181) - https://sketchapp.com -->
    <title>Group 12</title>
    <desc>Created with Sketch.</desc>
    <defs>
        <polygon id="path-1" points="0 0.5645 69.0399 0.5645 69.0399 72.9992308 0 72.9992308"></polygon>
    </defs>
    <g id="Page-1" stroke="none" stroke-width="1" fill="none" fill-rule="evenodd">
        <g id="Futer_Desktop" transform="translate(-985.000000, -94.000000)">
            <g id="Group-12" transform="translate(985.000000, 93.000000)">
                <g id="Group-3" transform="translate(0.000000, 0.435700)">
                    <mask id="mask-2" fill="white">
                        <use xlink:href="#path-1"></use>
                    </mask>
                    <g id="Clip-2"></g>
                    <path d="M55.2499,20.0045 C55.2499,20.6345 55.0699,21.1045 54.7099,21.4035 C54.3499,21.7145 53.9099,21.8635 53.3999,21.8635 L50.1499,21.8635 C49.6399,21.8635 49.2199,21.7045 48.8999,21.3745 C48.5699,21.0545 48.4099,20.6345 48.4099,20.1245 L48.4099,19.8235 L47.8699,20.7545 C47.6999,21.0445 47.5199,21.2435 47.3199,21.3445 C47.1199,21.4545 46.8699,21.5045 46.5499,21.5045 C46.2599,21.5045 46.0199,21.4545 45.8099,21.3345 C45.5999,21.2245 45.3999,21.0145 45.2199,20.7245 L44.6799,19.8235 L44.6799,20.2745 C44.6799,20.7335 44.5499,21.1135 44.2999,21.4145 C44.0399,21.7145 43.6799,21.8635 43.2199,21.8635 L42.4899,21.8635 C42.0699,21.8635 41.6899,21.7145 41.3699,21.4035 C41.0499,21.0945 40.8899,20.6135 40.8899,19.9745 L40.8899,10.8145 C40.8899,10.5145 40.9599,10.2545 41.0899,10.0245 C41.2199,9.7945 41.3799,9.6045 41.5799,9.4435 C41.7699,9.2835 41.9899,9.1745 42.2199,9.0845 C42.4599,9.0145 42.6799,8.9645 42.8899,8.9645 L45.4799,8.9645 C45.8099,8.9645 46.0699,9.0335 46.2599,9.1535 C46.4499,9.2835 46.6599,9.5545 46.8899,9.9645 L48.4099,12.6535 L48.4499,12.6535 L50.0199,9.9645 C50.2199,9.6135 50.4199,9.3635 50.6399,9.2045 C50.8599,9.0445 51.1299,8.9645 51.4599,8.9645 L53.5499,8.9645 C54.0599,8.9645 54.4699,9.1245 54.7799,9.4345 C55.0899,9.7435 55.2499,10.2045 55.2499,10.8145 L55.2499,20.0045 Z M51.8799,48.3945 C51.6799,48.9345 51.3999,49.4145 51.0299,49.8235 C50.6499,50.2335 50.2099,50.5735 49.6899,50.8445 C49.1699,51.1135 48.5899,51.3045 47.9399,51.4145 L47.9399,52.6845 C47.9399,53.3635 47.7799,53.8545 47.4599,54.1345 C47.1299,54.4245 46.6899,54.5735 46.1399,54.5735 L42.8199,54.5735 C42.1399,54.5735 41.6399,54.4245 41.3399,54.1245 C41.0399,53.8235 40.8899,53.3545 40.8899,52.7245 L40.8899,43.5245 C40.8899,42.2945 41.5499,41.6745 42.8799,41.6745 L46.7299,41.6745 C47.5699,41.6745 48.3299,41.7945 48.9999,42.0245 C49.6699,42.2545 50.2399,42.5845 50.7199,43.0145 C51.1899,43.4435 51.5599,43.9645 51.8099,44.5735 C52.0599,45.1745 52.1799,45.8545 52.1799,46.5945 C52.1799,47.2545 52.0899,47.8545 51.8799,48.3945 L51.8799,48.3945 Z M39.2399,18.2145 C39.2399,18.8235 39.1299,19.3545 38.9099,19.8145 C38.6899,20.2745 38.3799,20.6535 37.9799,20.9645 C37.5799,21.2645 37.1099,21.4935 36.5599,21.6445 C36.0199,21.7945 35.4199,21.8635 34.7599,21.8635 L31.8199,21.8635 C30.3699,21.8635 29.2299,21.5335 28.3699,20.8745 C27.5299,20.2145 27.0999,19.2745 27.0999,18.0445 L27.0999,10.8045 C27.0999,9.5845 27.8399,8.9645 29.3399,8.9645 L32.0399,8.9645 C32.6399,8.9645 33.1099,9.1135 33.4299,9.4035 C33.7599,9.6845 33.9199,10.1445 33.9199,10.7945 L33.9199,17.6135 C33.9199,17.8345 33.9899,17.9835 34.1199,18.0735 C34.2499,18.1645 34.4099,18.2145 34.5999,18.2145 C34.7899,18.2145 34.9499,18.1645 35.0799,18.0735 C35.2099,17.9835 35.2699,17.8345 35.2699,17.6135 L35.2699,10.5645 C35.2699,10.0445 35.4099,9.6445 35.6899,9.3745 C35.9699,9.1045 36.3299,8.9645 36.7899,8.9645 L37.7999,8.9645 C38.2199,8.9645 38.5699,9.1245 38.8399,9.4345 C39.1099,9.7435 39.2399,10.1935 39.2399,10.7745 L39.2399,18.2145 Z M39.2399,50.9245 C39.2399,51.5335 39.1299,52.0645 38.9099,52.5245 C38.6899,52.9835 38.3799,53.3635 37.9799,53.6745 C37.5799,53.9745 37.1099,54.2045 36.5599,54.3545 C36.0199,54.5045 35.4199,54.5735 34.7599,54.5735 L31.8199,54.5735 C30.3699,54.5735 29.2299,54.2435 28.3699,53.5845 C27.5299,52.9245 27.0999,51.9745 27.0999,50.7545 L27.0999,43.5145 C27.0999,42.2835 27.8399,41.6745 29.3399,41.6745 L32.0399,41.6745 C32.6399,41.6745 33.1099,41.8235 33.4299,42.1045 C33.7599,42.3945 33.9199,42.8545 33.9199,43.5045 L33.9199,50.3145 C33.9199,50.5335 33.9899,50.6935 34.1199,50.7835 C34.2499,50.8745 34.4099,50.9245 34.5999,50.9245 C34.7899,50.9245 34.9499,50.8745 35.0799,50.7835 C35.2099,50.6935 35.2699,50.5335 35.2699,50.3145 L35.2699,43.2745 C35.2699,42.7545 35.4099,42.3545 35.6899,42.0845 C35.9699,41.8145 36.3299,41.6745 36.7899,41.6745 L37.7999,41.6745 C38.2199,41.6745 38.5699,41.8345 38.8399,42.1445 C39.1099,42.4545 39.2399,42.9035 39.2399,43.4835 L39.2399,50.9245 Z M25.4699,15.6845 C25.2699,16.2335 24.9799,16.7045 24.6099,17.1135 C24.2399,17.5245 23.7999,17.8635 23.2699,18.1345 C22.7599,18.4145 22.1699,18.6045 21.5299,18.7145 L21.5299,19.9745 C21.5299,20.6535 21.3699,21.1445 21.0399,21.4345 C20.7199,21.7245 20.2799,21.8635 19.7299,21.8635 L16.3999,21.8635 C15.7199,21.8635 15.2299,21.7145 14.9299,21.4145 C14.6299,21.1135 14.4799,20.6535 14.4799,20.0145 L14.4799,10.8145 C14.4799,9.5845 15.1399,8.9645 16.4599,8.9645 L20.3099,8.9645 C21.1499,8.9645 21.9099,9.0845 22.5799,9.3145 C23.2599,9.5445 23.8299,9.8745 24.2999,10.3045 C24.7799,10.7335 25.1499,11.2545 25.3899,11.8635 C25.6499,12.4645 25.7699,13.1445 25.7699,13.8845 C25.7699,14.5445 25.6699,15.1445 25.4699,15.6845 L25.4699,15.6845 Z M25.4699,32.0445 C25.2699,32.5845 24.9799,33.0645 24.6099,33.4745 C24.2399,33.8845 23.7999,34.2245 23.2699,34.4935 C22.7599,34.7645 22.1699,34.9545 21.5299,35.0645 L21.5299,36.3235 C21.5299,37.0045 21.3699,37.4935 21.0399,37.7835 C20.7199,38.0735 20.2799,38.2245 19.7299,38.2245 L16.3999,38.2245 C15.7199,38.2245 15.2299,38.0735 14.9299,37.7745 C14.6299,37.4745 14.4799,37.0045 14.4799,36.3745 L14.4799,27.1745 C14.4799,25.9435 15.1399,25.3235 16.4599,25.3235 L20.3099,25.3235 C21.1499,25.3235 21.9099,25.4435 22.5799,25.6745 C23.2599,25.9035 23.8299,26.2335 24.2999,26.6645 C24.7799,27.0945 25.1499,27.6135 25.3899,28.2145 C25.6499,28.8235 25.7699,29.5045 25.7699,30.2435 C25.7699,30.9035 25.6699,31.5045 25.4699,32.0445 L25.4699,32.0445 Z M25.3599,50.6535 C25.0899,51.4435 24.6999,52.1245 24.1899,52.7045 C23.6799,53.2745 23.0599,53.7335 22.3199,54.0735 C21.5799,54.4035 20.7599,54.5735 19.8299,54.5735 L16.3999,54.5735 C15.7199,54.5735 15.2299,54.4245 14.9299,54.1245 C14.6299,53.8235 14.4799,53.3545 14.4799,52.7245 L14.4799,43.5245 C14.4799,42.2945 15.1399,41.6745 16.4599,41.6745 L19.8299,41.6745 C20.7599,41.6745 21.5799,41.8445 22.3199,42.1845 C23.0599,42.5145 23.6799,42.9745 24.1899,43.5445 C24.6999,44.1245 25.0899,44.8045 25.3599,45.5945 C25.6299,46.3745 25.7699,47.2245 25.7699,48.1245 C25.7699,49.0245 25.6299,49.8745 25.3599,50.6535 L25.3599,50.6535 Z M27.0999,27.1535 C27.0999,25.9345 27.8599,25.3235 29.3799,25.3235 L31.9999,25.3235 C32.5999,25.3235 33.0699,25.4645 33.4099,25.7545 C33.7499,26.0335 33.9199,26.5045 33.9199,27.1445 L33.9199,36.3745 C33.9199,36.9645 33.7599,37.4145 33.4399,37.7435 C33.1199,38.0645 32.6999,38.2245 32.1799,38.2245 L28.9599,38.2245 C28.3599,38.2245 27.8999,38.0735 27.5799,37.7745 C27.2599,37.4745 27.0999,37.0045 27.0999,36.3745 L27.0999,27.1535 Z M34.6799,0.5645 C9.2899,0.5645 -0.0001,14.7335 -0.0001,32.9345 C-0.0001,47.2645 6.3999,61.5845 20.1299,61.5845 C28.6299,61.5845 33.3099,68.0145 26.4099,71.9935 C25.8999,72.2945 26.1599,73.0735 26.7399,72.9935 C64.1099,67.9035 69.0399,43.7145 69.0399,34.0245 C69.0399,22.7835 63.9899,0.5645 34.6799,0.5645 L34.6799,0.5645 Z" id="Fill-1" fill="#B6B5B6" mask="url(#mask-2)"></path>
                </g>
                <path d="M19.89,11.7498 C19.22,11.7498 18.67,12.2998 18.67,12.9698 C18.67,13.6498 19.22,14.1998 19.89,14.1998 C20.56,14.1998 21.11,13.6498 21.11,12.9698 C21.11,12.2998 20.56,11.7498 19.89,11.7498" id="Fill-4" fill="#B6B5B6"></path>
                <path d="M22.3402,30.74 C21.6602,30.74 21.1102,31.29 21.1102,31.969 C21.1102,32.64 21.6602,33.19 22.3402,33.19 C23.0102,33.19 23.5602,32.64 23.5602,31.969 C23.5602,31.29 23.0102,30.74 22.3402,30.74" id="Fill-6" fill="#B6B5B6"></path>
                <path d="M21.7299,45.7596 C21.0599,45.7596 20.5099,47.0206 20.5099,48.5606 C20.5099,50.1106 21.0599,51.3606 21.7299,51.3606 C22.4099,51.3606 22.9599,50.1106 22.9599,48.5606 C22.9599,47.0206 22.4099,45.7596 21.7299,45.7596" id="Fill-8" fill="#B6B5B6"></path>
                <path d="M44.2299,44.5398 C43.5499,44.5398 43.0099,45.0898 43.0099,45.7598 C43.0099,46.4298 43.5499,46.9798 44.2299,46.9798 C44.8999,46.9798 45.4499,46.4298 45.4499,45.7598 C45.4499,45.0898 44.8999,44.5398 44.2299,44.5398" id="Fill-10" fill="#B6B5B6"></path>
            </g>
        </g>
    </g>
</svg>